<svg width="111" height="36" viewBox="0 0 111 36" xmlns="http://www.w3.org/2000/svg"><g fill-rule="nonzero" fill="#FFF"><path d="M1.76 26.231L13.286 6.199c4.778-8.305 15.245-8.258 19.957.096L44.49 26.231H32.744l-7.994-14.17c-.827-1.467-2.179-1.473-3.018-.014L13.57 26.23H1.76zm64.207 0L77.493 6.199c4.778-8.305 15.245-8.258 19.957.096l11.246 19.936H96.951l-7.994-14.17c-.827-1.467-2.178-1.473-3.018-.014L77.778 26.23H65.967zM53.211 0h5.703c4.551 0 7.05 4.959 4.623 9.185l-2.663 4.637c-2.3 4.005-7.188 4.028-9.52.046l-2.73-4.659C46.157 4.997 48.642 0 53.211 0z"/><path d="M10.02 33.17l13-22a5.25 5.25 0 0 0-9.04-5.34l-13 22a5.25 5.25 0 0 0 9.04 5.34z"/><path d="M46.02 27.83l-13-22a5.25 5.25 0 0 0-9.04 5.34l13 22a5.25 5.25 0 0 0 9.04-5.34zM74.02 33.17l13-22a5.25 5.25 0 0 0-9.04-5.34l-13 22a5.25 5.25 0 0 0 9.04 5.34z"/><path d="M110.02 27.83l-13-22a5.25 5.25 0 0 0-9.04 5.34l13 22a5.25 5.25 0 1 0 9.04-5.34z"/></g></svg>