<?xml version="1.0" encoding="UTF-8" standalone="no"?>
<svg width="111px" height="36px" viewBox="0 0 111 36" version="1.1" xmlns="http://www.w3.org/2000/svg" xmlns:xlink="http://www.w3.org/1999/xlink">
    <defs></defs>
    <g id="Page-1" stroke="none" stroke-width="1" fill="none" fill-rule="evenodd">
        <g id="Ava" transform="translate(-143.000000, -60.000000)" fill-rule="nonzero" fill="#FFFFFF">
            <g id="logo" transform="translate(143.000000, 60.000000)">
                <path d="M1.75962255,26.2310033 L13.2857824,6.19881115 C18.0639655,-2.10555771 28.5308297,-2.05873101 33.2431544,6.29497558 L44.4890648,26.2310033 L32.7436094,26.2310033 L24.7499761,12.0604034 C23.922698,10.5938579 22.5714149,10.5877853 21.7318506,12.0469282 L13.5705911,26.2310033 L1.75962255,26.2310033 Z M65.9669396,26.2310033 L77.4930994,6.19881115 C82.2712826,-2.10555771 92.7381468,-2.05873101 97.4504715,6.29497558 L108.696382,26.2310033 L96.9509265,26.2310033 L88.9572932,12.0604034 C88.1300151,10.5938579 86.7787319,10.5877853 85.9391676,12.0469282 L77.7779082,26.2310033 L65.9669396,26.2310033 Z" id="Combined-Shape"></path>
                <path d="M53.2109993,0 L58.9135347,0 C63.4650028,0 65.9643995,4.9586331 63.5371841,9.18460871 L60.87386,13.8216685 C58.5733884,17.8269731 53.6863057,17.8496369 51.3536958,13.8680096 L48.6244402,9.20933128 C46.1569398,4.99745379 48.6420822,0 53.2109993,0 Z" id="Path-2-Copy-3"></path>
                <path d="M10.0198643,33.1708289 L23.0198643,11.1708289 C24.4949223,8.67457678 23.667081,5.45519379 21.1708289,3.98013573 C18.6745768,2.50507766 15.4551938,3.332919 13.9801357,5.82917111 L0.980135727,27.8291711 C-0.494922338,30.3254232 0.332919002,33.5448062 2.82917111,35.0198643 C5.32542322,36.4949223 8.54480621,35.667081 10.0198643,33.1708289 Z" id="Line"></path>
                <path d="M46.0198643,27.8291711 L33.0198643,5.82917111 C31.5448062,3.332919 28.3254232,2.50507766 25.8291711,3.98013573 C23.332919,5.45519379 22.5050777,8.67457678 23.9801357,11.1708289 L36.9801357,33.1708289 C38.4551938,35.667081 41.6745768,36.4949223 44.1708289,35.0198643 C46.667081,33.5448062 47.4949223,30.3254232 46.0198643,27.8291711 Z" id="Line"></path>
                <path d="M74.0198643,33.1708289 L87.0198643,11.1708289 C88.4949223,8.67457678 87.667081,5.45519379 85.1708289,3.98013573 C82.6745768,2.50507766 79.4551938,3.332919 77.9801357,5.82917111 L64.9801357,27.8291711 C63.5050777,30.3254232 64.332919,33.5448062 66.8291711,35.0198643 C69.3254232,36.4949223 72.5448062,35.667081 74.0198643,33.1708289 Z" id="Line"></path>
                <path d="M110.019864,27.8291711 L97.0198643,5.82917111 C95.5448062,3.332919 92.3254232,2.50507766 89.8291711,3.98013573 C87.332919,5.45519379 86.5050777,8.67457678 87.9801357,11.1708289 L100.980136,33.1708289 C102.455194,35.667081 105.674577,36.4949223 108.170829,35.0198643 C110.667081,33.5448062 111.494922,30.3254232 110.019864,27.8291711 Z" id="Line"></path>
            </g>
        </g>
    </g>
</svg>