<?xml version="1.0" encoding="UTF-8" standalone="no"?>
<svg width="14px" height="12px" viewBox="0 0 14 12" version="1.1" xmlns="http://www.w3.org/2000/svg" xmlns:xlink="http://www.w3.org/1999/xlink">
    <defs></defs>
    <g id="Page-1" stroke="none" stroke-width="1" fill="none" fill-rule="evenodd">
        <g id="Ava" transform="translate(-167.000000, -2472.000000)" fill="#3EFFFF">
            <g id="Group-6" transform="translate(151.000000, 2447.000000)">
                <path d="M29.82,36.2 L24.58,36.2 C24.046664,34.599992 23.78,32.9466752 23.78,31.24 C23.78,29.5333248 24.2533286,28.1333388 25.2,27.04 C26.1466714,25.9466612 27.5399908,25.4 29.38,25.4 L29.38,28 C27.9933264,28 27.3,28.8799912 27.3,30.64 L27.3,31.28 L29.82,31.28 L29.82,36.2 Z M22.22,36.2 L16.98,36.2 C16.446664,34.599992 16.18,32.9466752 16.18,31.24 C16.18,29.5333248 16.6533286,28.1333388 17.6,27.04 C18.5466714,25.9466612 19.9399908,25.4 21.78,25.4 L21.78,28 C20.3933264,28 19.7,28.8799912 19.7,30.64 L19.7,31.28 L22.22,31.28 L22.22,36.2 Z" id="“"></path>
            </g>
        </g>
    </g>
</svg>